<?xml version="1.0" standalone="no"?>
<!DOCTYPE svg PUBLIC "-//W3C//DTD SVG 20010904//EN"
 "http://www.w3.org/TR/2001/REC-SVG-20010904/DTD/svg10.dtd">
<svg version="1.0" xmlns="http://www.w3.org/2000/svg"
 width="478.000000pt" height="476.000000pt" viewBox="0 0 478.000000 476.000000"
 preserveAspectRatio="xMidYMid meet">

<g transform="translate(0.000000,476.000000) scale(0.100000,-0.100000)"
fill="#000000" stroke="none">
<path d="M2159 4516 c-2 -2 -46 -9 -97 -15 -368 -45 -785 -229 -1052 -465 -30
-27 -71 -63 -90 -80 l-35 -31 -135 0 c-154 0 -183 -10 -232 -80 -68 -99 1
-185 100 -125 18 11 41 20 52 20 29 0 26 -43 -5 -74 -14 -14 -25 -29 -25 -33
0 -5 -9 -15 -20 -23 -11 -8 -20 -22 -20 -32 0 -10 -4 -18 -10 -18 -5 0 -10 -7
-10 -15 0 -8 -4 -15 -10 -15 -5 0 -10 -9 -10 -20 0 -11 -4 -20 -10 -20 -5 0
-10 -7 -10 -15 0 -8 -4 -15 -10 -15 -5 0 -10 -8 -10 -18 0 -9 -10 -33 -23 -52
-13 -19 -30 -50 -38 -67 -8 -18 -17 -33 -21 -33 -5 0 -8 -9 -8 -20 0 -11 -5
-30 -12 -43 -24 -48 -28 -57 -28 -77 0 -10 -9 -35 -20 -55 -11 -20 -20 -50
-20 -68 0 -18 -7 -41 -15 -51 -8 -11 -15 -34 -15 -51 0 -17 -4 -35 -9 -40 -5
-6 -12 -35 -15 -65 -3 -30 -10 -86 -17 -125 -21 -130 -13 -505 12 -521 5 -3 9
-27 9 -54 0 -27 5 -52 10 -55 5 -3 10 -25 10 -48 0 -23 7 -51 15 -61 8 -11 15
-34 15 -52 0 -18 5 -36 10 -39 6 -3 10 -15 10 -26 0 -10 5 -19 10 -19 6 0 10
-11 10 -24 0 -14 5 -28 10 -31 6 -3 10 -15 10 -26 0 -10 5 -19 10 -19 6 0 10
-15 10 -34 0 -19 3 -36 8 -38 6 -3 24 -34 86 -153 12 -22 23 -42 26 -45 3 -3
16 -27 30 -55 14 -27 27 -52 30 -55 3 -3 23 -30 45 -60 157 -220 414 -448 660
-585 159 -89 388 -180 544 -215 229 -52 505 -76 647 -56 41 6 53 4 64 -9 12
-15 12 -21 -3 -47 -20 -35 -21 -94 -3 -163 15 -56 30 -63 111 -51 46 7 141 87
131 112 -3 8 -1 14 3 14 5 0 4 11 -2 25 -7 14 -16 25 -20 25 -5 0 -6 4 -3 8 3
5 -1 29 -9 54 -12 42 -12 48 3 61 9 8 42 20 72 25 125 23 454 151 565 219 51
32 118 76 125 83 3 3 23 17 45 33 22 15 54 39 72 54 17 16 47 39 65 53 44 34
279 272 273 278 -2 3 8 17 24 31 15 15 31 35 35 46 3 11 22 38 41 60 19 22 35
45 35 52 0 6 6 18 13 25 24 24 50 69 43 75 -3 3 3 13 15 21 11 8 18 20 15 27
-3 8 2 19 10 25 8 7 14 19 14 26 0 8 5 14 11 14 6 0 9 6 6 14 -3 8 1 20 9 26
8 7 14 18 14 25 0 7 8 30 17 51 9 22 17 41 18 44 0 3 6 15 13 28 7 12 10 26 7
31 -3 5 0 11 6 13 6 2 12 16 12 31 1 15 6 27 11 27 4 0 6 6 3 14 -3 7 1 24 10
35 8 12 13 24 10 27 -2 3 0 22 5 42 5 20 12 55 14 76 3 22 9 47 13 55 5 9 8
39 7 66 -1 28 3 59 9 70 12 25 16 386 4 401 -5 7 -10 29 -11 50 0 22 -5 47
-10 57 -5 10 -10 39 -11 65 -1 26 -8 57 -14 68 -7 12 -10 24 -7 27 6 6 -15 75
-29 95 -6 8 -5 12 2 12 17 0 13 14 -9 38 -12 12 -16 22 -10 22 6 0 2 13 -9 29
-11 15 -18 31 -14 34 3 4 1 13 -6 21 -6 8 -13 22 -15 32 -2 11 -5 24 -6 29 -5
23 1 33 28 44 16 7 36 25 46 41 22 38 48 38 85 -1 32 -33 51 -31 51 4 -1 31
-28 78 -72 126 -21 22 -38 44 -38 49 0 4 -13 21 -30 37 -16 16 -30 34 -30 40
0 5 -11 27 -25 48 -23 33 -30 37 -69 37 -23 0 -68 -5 -100 -11 -62 -13 -106
-2 -106 26 0 8 -3 15 -7 15 -5 0 -19 17 -33 38 -28 41 -236 253 -288 292 -18
14 -45 35 -60 47 -15 13 -30 23 -34 23 -4 0 -18 11 -31 24 -13 13 -38 31 -55
40 -17 9 -51 30 -76 47 -58 39 -319 163 -399 189 -117 39 -292 81 -397 95 -94
13 -480 21 -491 11z m485 -66 c374 -55 686 -186 986 -414 87 -67 260 -227 260
-241 0 -3 19 -27 43 -52 71 -76 68 -79 -123 -75 -121 3 -182 0 -230 -11 -36
-8 -96 -18 -135 -22 -38 -4 -108 -15 -155 -26 -105 -23 -156 -24 -255 -3 -43
9 -91 14 -109 11 -62 -11 -162 -34 -198 -46 -42 -14 -78 -7 -78 15 0 8 5 14
10 14 6 0 10 9 10 19 0 11 4 22 8 25 12 7 11 337 -1 361 -5 11 -27 37 -48 58
-34 34 -42 37 -92 37 -41 0 -68 -7 -112 -31 -59 -31 -105 -70 -105 -89 0 -5
-4 -10 -10 -10 -5 0 -10 -13 -10 -29 0 -17 -4 -33 -10 -36 -6 -3 -10 -51 -10
-107 0 -85 3 -103 18 -117 10 -9 23 -35 29 -59 10 -40 9 -44 -12 -58 -28 -18
-50 -14 -164 33 -79 33 -92 35 -189 34 -84 0 -122 4 -196 25 -50 15 -118 33
-151 41 -33 7 -69 20 -81 28 -51 33 -161 69 -314 102 -91 19 -189 40 -219 47
-80 17 -79 23 14 101 33 27 62 52 65 55 20 21 102 81 135 99 22 12 63 36 90
53 73 45 255 135 290 144 17 4 46 15 65 25 49 24 270 77 410 99 166 25 404 25
574 0z m-1733 -676 c8 -7 64 -39 125 -70 60 -31 159 -83 221 -115 98 -52 122
-61 194 -69 45 -5 121 -23 168 -39 47 -16 132 -39 188 -50 133 -28 246 -79
267 -120 9 -17 16 -39 16 -50 0 -11 5 -23 10 -26 6 -3 10 -17 10 -30 0 -13 5
-27 10 -30 6 -3 10 -24 10 -45 0 -21 5 -42 10 -45 6 -3 10 -16 10 -29 0 -12 4
-26 9 -32 5 -5 12 -38 15 -74 8 -92 17 -143 27 -156 15 -19 16 -221 2 -235 -7
-7 -13 -23 -13 -36 0 -13 -4 -23 -10 -23 -5 0 -10 -8 -10 -18 0 -10 -4 -22 -9
-27 -8 -9 -13 -34 -27 -145 -4 -25 -15 -57 -25 -72 -14 -19 -19 -43 -19 -89 0
-50 -5 -68 -24 -93 -32 -43 -40 -71 -41 -148 0 -56 -3 -69 -22 -86 -23 -19
-32 -72 -13 -72 6 0 10 -9 10 -20 0 -23 16 -54 44 -87 19 -22 23 -43 47 -218
21 -152 39 -246 49 -260 28 -36 50 -91 50 -125 0 -21 5 -42 10 -45 6 -3 10
-15 10 -25 0 -10 18 -40 40 -65 22 -25 42 -58 46 -73 3 -15 10 -35 16 -46 7
-13 6 -26 -3 -43 -11 -20 -11 -26 1 -33 8 -5 21 -5 31 0 16 9 54 60 44 60 -3
0 0 10 7 23 7 12 13 29 14 38 1 8 4 32 8 52 4 20 7 40 8 44 1 5 6 13 12 19 6
7 18 20 26 31 72 92 74 112 12 167 -66 60 -67 67 -33 136 27 56 28 67 24 140
l-6 80 25 0 c20 0 28 -8 38 -32 22 -61 62 -133 101 -184 35 -45 39 -57 39
-107 0 -31 -4 -58 -9 -61 -11 -7 -21 -61 -32 -171 -4 -49 -13 -121 -19 -160
-6 -38 -14 -117 -19 -175 -12 -142 -9 -140 -198 -140 -354 0 -670 75 -973 232
-85 44 -157 83 -160 87 -3 5 -19 15 -37 24 -17 9 -37 22 -45 29 -20 19 -89 71
-111 84 -27 15 -233 204 -223 204 7 0 -18 31 -51 66 -13 13 -23 25 -23 28 0 7
-27 41 -56 70 -12 11 -30 37 -40 56 -11 19 -27 43 -36 54 -10 11 -18 26 -18
33 0 7 -4 13 -10 13 -5 0 -10 8 -10 17 0 9 -8 25 -17 35 -9 10 -18 29 -20 41
-2 12 -12 30 -22 42 -23 26 -61 101 -55 108 3 3 -2 17 -11 31 -9 14 -16 27
-16 31 1 3 -6 21 -14 41 -8 20 -15 42 -15 48 0 7 -9 22 -20 33 -12 14 -15 23
-8 25 7 3 8 9 3 19 -5 8 -11 23 -12 33 -2 11 -8 25 -14 32 -7 8 -6 13 3 16 10
4 11 8 1 20 -7 8 -10 17 -7 21 3 3 0 16 -7 29 -7 12 -12 27 -11 32 2 4 -2 24
-8 42 -7 19 -13 54 -15 77 -2 23 -8 58 -12 77 -12 51 -8 319 5 360 6 19 10 49
8 65 -1 17 3 39 8 50 5 11 11 39 12 63 2 24 10 56 18 72 9 20 11 32 4 36 -7 4
-6 9 1 13 6 4 12 19 13 34 1 15 6 27 10 27 4 0 8 9 8 20 0 11 4 28 9 38 26 51
33 71 27 80 -3 5 1 15 9 22 8 7 15 23 15 36 0 12 4 26 10 29 6 3 10 14 10 24
0 10 8 29 19 42 10 13 22 35 26 48 4 13 14 32 24 42 9 11 17 24 17 29 1 6 2
12 3 15 0 3 1 8 0 11 0 3 9 14 20 23 12 10 21 23 21 30 0 6 5 11 10 11 6 0 10
6 10 13 0 6 17 34 38 61 20 27 42 56 47 65 6 8 22 27 36 41 14 14 30 36 34 49
8 27 61 53 90 44 11 -3 27 -12 36 -19z m3200 -274 c4 -8 10 -22 13 -30 4 -8
15 -28 25 -45 11 -16 20 -37 20 -46 1 -9 8 -22 16 -29 9 -7 22 -29 31 -49 9
-20 20 -44 25 -53 5 -10 9 -27 9 -37 0 -11 5 -23 10 -26 6 -3 10 -15 10 -26 0
-10 5 -19 10 -19 6 0 10 -8 10 -18 0 -10 7 -27 15 -38 8 -10 15 -31 15 -46 0
-15 5 -30 10 -33 6 -3 10 -26 10 -50 0 -24 5 -47 10 -50 6 -3 10 -26 10 -51 0
-24 4 -44 9 -44 20 0 40 -515 21 -534 -5 -5 -10 -43 -10 -82 0 -40 -4 -76 -10
-79 -5 -3 -10 -19 -10 -35 0 -16 -4 -32 -10 -35 -5 -3 -10 -26 -10 -50 0 -24
-4 -47 -10 -50 -5 -3 -10 -19 -10 -35 0 -16 -4 -31 -9 -35 -5 -3 -13 -19 -16
-37 -4 -17 -16 -47 -26 -65 -11 -19 -19 -42 -19 -53 0 -11 -4 -20 -10 -20 -5
0 -10 -9 -10 -19 0 -11 -4 -23 -10 -26 -5 -3 -10 -15 -10 -26 0 -10 -3 -19 -8
-19 -4 0 -13 -15 -20 -32 -7 -18 -18 -42 -24 -53 -7 -11 -17 -31 -24 -45 -7
-14 -22 -35 -34 -47 -11 -12 -20 -29 -20 -38 0 -8 -4 -15 -8 -15 -5 0 -15 -12
-23 -27 -15 -29 -18 -33 -74 -103 -72 -88 -141 -165 -178 -200 -107 -100 -144
-131 -191 -165 -249 -176 -454 -273 -764 -361 -87 -24 -96 -18 -95 73 0 56 4
77 22 102 12 17 19 31 14 31 -4 0 -2 4 5 9 8 5 15 20 15 35 1 14 5 26 8 26 6
0 10 16 24 119 5 41 25 57 88 70 65 15 97 14 147 -4 52 -18 106 -19 117 -2 11
16 12 476 1 483 -4 3 -8 18 -8 35 0 16 -4 29 -10 29 -5 0 -10 6 -10 13 0 7 -9
23 -20 34 -10 12 -22 33 -26 47 -3 14 -12 30 -20 37 -8 6 -11 15 -8 20 3 5 0
18 -6 30 -6 11 -12 53 -12 92 0 40 -5 87 -10 105 -5 18 -10 79 -10 135 -1 56
-5 107 -9 113 -5 5 -10 30 -13 55 -11 104 -20 139 -37 158 -13 14 -15 21 -6
24 9 3 9 8 1 18 -5 8 -12 32 -13 54 -2 22 -7 46 -13 53 -7 8 -7 12 0 12 11 0
-30 122 -50 149 -7 9 -26 30 -43 47 l-31 30 8 75 c5 41 11 96 14 124 3 27 9
54 13 60 4 5 8 63 9 128 0 72 5 123 11 131 7 8 11 18 10 22 -6 37 36 60 126
69 107 11 271 41 360 65 59 17 115 23 213 26 125 3 330 32 383 53 36 15 120 9
130 -9z m145 -26 c29 -28 34 -41 34 -79 0 -32 -5 -47 -15 -51 -18 -7 -47 14
-39 27 3 5 -13 37 -36 71 -33 47 -39 62 -28 69 20 13 47 1 84 -37z"/>
</g>
</svg>
